<svg width="273" height="40" viewBox="0 0 273 40" fill="none" xmlns="http://www.w3.org/2000/svg">
<path d="M15.936 4.848C20.224 4.848 23.92 6.208 27.024 8.928L23.04 13.104C21.856 12.208 20.752 11.568 19.728 11.184C18.736 10.768 17.584 10.56 16.272 10.56C13.808 10.56 11.84 11.536 10.368 13.488C8.896 15.408 8.16 18.336 8.16 22.272C8.16 26.528 8.72 29.552 9.84 31.344C10.96 33.104 12.704 33.984 15.072 33.984C16.736 33.984 18.24 33.616 19.584 32.88V25.344H15.264L14.496 19.776H27.216V36.24C25.488 37.36 23.584 38.224 21.504 38.832C19.424 39.44 17.344 39.744 15.264 39.744C10.208 39.744 6.4 38.272 3.84 35.328C1.28 32.352 0 28 0 22.272C0 18.624 0.688 15.488 2.064 12.864C3.472 10.24 5.376 8.256 7.776 6.912C10.208 5.536 12.928 4.848 15.936 4.848Z" fill="#141414"/>
<path d="M52.5855 31.536C52.5855 32.496 52.7135 33.2 52.9695 33.648C53.2575 34.096 53.7055 34.432 54.3135 34.656L52.7295 39.6C51.1615 39.472 49.8815 39.136 48.8895 38.592C47.8975 38.016 47.1295 37.12 46.5855 35.904C44.9215 38.464 42.3615 39.744 38.9055 39.744C36.3775 39.744 34.3615 39.008 32.8575 37.536C31.3535 36.064 30.6015 34.144 30.6015 31.776C30.6015 28.992 31.6255 26.864 33.6735 25.392C35.7215 23.92 38.6815 23.184 42.5535 23.184H45.1455V22.08C45.1455 20.576 44.8255 19.552 44.1855 19.008C43.5455 18.432 42.4255 18.144 40.8255 18.144C39.9935 18.144 38.9855 18.272 37.8015 18.528C36.6175 18.752 35.4015 19.072 34.1535 19.488L32.4255 14.496C34.0255 13.888 35.6575 13.424 37.3215 13.104C39.0175 12.784 40.5855 12.624 42.0255 12.624C45.6735 12.624 48.3455 13.376 50.0415 14.88C51.7375 16.384 52.5855 18.64 52.5855 21.648V31.536ZM41.1135 34.32C42.8415 34.32 44.1855 33.504 45.1455 31.872V27.36H43.2735C41.5455 27.36 40.2495 27.664 39.3855 28.272C38.5535 28.88 38.1375 29.824 38.1375 31.104C38.1375 32.128 38.3935 32.928 38.9055 33.504C39.4495 34.048 40.1855 34.32 41.1135 34.32Z" fill="#141414"/>
<path d="M73.0744 12.624C76.1144 12.624 78.4504 13.824 80.0824 16.224C81.7144 18.592 82.5304 21.92 82.5304 26.208C82.5304 28.832 82.1144 31.168 81.2824 33.216C80.4824 35.264 79.3144 36.864 77.7784 38.016C76.2744 39.168 74.4824 39.744 72.4024 39.744C71.0264 39.744 69.7624 39.456 68.6104 38.88C67.4904 38.304 66.5304 37.504 65.7304 36.48L65.3464 38.928H58.6264V3.312L66.2104 2.496V16.032C66.9784 14.976 67.9544 14.144 69.1384 13.536C70.3544 12.928 71.6664 12.624 73.0744 12.624ZM70.1944 34.224C73.1704 34.224 74.6584 31.552 74.6584 26.208C74.6584 23.168 74.3064 21.072 73.6024 19.92C72.8984 18.768 71.8744 18.192 70.5304 18.192C68.8344 18.192 67.3944 19.184 66.2104 21.168V31.776C66.6904 32.544 67.2664 33.152 67.9384 33.6C68.6424 34.016 69.3944 34.224 70.1944 34.224Z" fill="#141414"/>
<path d="M101.091 12.72C102.019 12.72 102.867 12.832 103.635 13.056L102.435 20.4C101.475 20.176 100.707 20.064 100.131 20.064C98.627 20.064 97.475 20.592 96.675 21.648C95.907 22.672 95.299 24.224 94.851 26.304V38.928H87.267V13.44H93.891L94.515 18.384C95.091 16.624 95.955 15.248 97.107 14.256C98.291 13.232 99.619 12.72 101.091 12.72Z" fill="#141414"/>
<path d="M114.117 13.44V38.928H106.533V13.44H114.117ZM110.277 0C111.589 0 112.661 0.416 113.493 1.248C114.357 2.048 114.789 3.072 114.789 4.32C114.789 5.568 114.357 6.608 113.493 7.44C112.661 8.24 111.589 8.64 110.277 8.64C108.965 8.64 107.893 8.24 107.061 7.44C106.229 6.608 105.813 5.568 105.813 4.32C105.813 3.072 106.229 2.048 107.061 1.248C107.893 0.416 108.965 0 110.277 0Z" fill="#141414"/>
<path d="M142.303 25.68C142.303 26.736 142.256 27.648 142.16 28.416H126.368C126.624 30.56 127.231 32.064 128.191 32.928C129.151 33.792 130.48 34.224 132.176 34.224C133.2 34.224 134.192 34.048 135.152 33.696C136.112 33.312 137.151 32.736 138.271 31.968L141.391 36.192C138.415 38.56 135.104 39.744 131.456 39.744C127.328 39.744 124.159 38.528 121.951 36.096C119.743 33.664 118.64 30.4 118.64 26.304C118.64 23.712 119.104 21.392 120.032 19.344C120.96 17.264 122.32 15.632 124.112 14.448C125.904 13.232 128.048 12.624 130.544 12.624C134.224 12.624 137.104 13.776 139.184 16.08C141.264 18.384 142.303 21.584 142.303 25.68ZM134.863 23.52C134.799 19.616 133.424 17.664 130.736 17.664C129.424 17.664 128.399 18.144 127.663 19.104C126.959 20.064 126.528 21.648 126.368 23.856H134.863V23.52Z" fill="#141414"/>
<path d="M153.332 39.744C151.124 39.744 149.396 39.12 148.148 37.872C146.932 36.592 146.324 34.784 146.324 32.448V3.312L153.908 2.496V32.16C153.908 33.216 154.34 33.744 155.204 33.744C155.652 33.744 156.068 33.664 156.452 33.504L157.94 38.88C156.564 39.456 155.028 39.744 153.332 39.744Z" fill="#141414"/>
<path d="M183.053 4.848C185.549 4.848 187.709 5.2 189.533 5.904C191.389 6.608 193.068 7.68 194.572 9.12L190.924 13.392C188.652 11.536 186.22 10.608 183.628 10.608C182.252 10.608 181.165 10.896 180.365 11.472C179.565 12.016 179.165 12.816 179.165 13.872C179.165 14.608 179.341 15.216 179.693 15.696C180.045 16.144 180.668 16.576 181.564 16.992C182.46 17.408 183.804 17.904 185.596 18.48C188.988 19.568 191.485 20.912 193.085 22.512C194.685 24.08 195.484 26.32 195.484 29.232C195.484 31.312 194.956 33.152 193.9 34.752C192.844 36.32 191.325 37.552 189.34 38.448C187.356 39.312 185.005 39.744 182.285 39.744C179.564 39.744 177.148 39.312 175.036 38.448C172.956 37.584 171.165 36.432 169.661 34.992L173.645 30.624C174.925 31.712 176.237 32.528 177.581 33.072C178.957 33.616 180.444 33.888 182.044 33.888C183.676 33.888 184.957 33.536 185.885 32.832C186.845 32.096 187.324 31.088 187.324 29.808C187.324 28.976 187.149 28.288 186.797 27.744C186.445 27.168 185.837 26.656 184.973 26.208C184.109 25.76 182.861 25.28 181.229 24.768C177.549 23.648 174.925 22.272 173.357 20.64C171.821 19.008 171.053 16.944 171.053 14.448C171.053 12.528 171.565 10.848 172.589 9.408C173.613 7.936 175.037 6.816 176.861 6.048C178.685 5.248 180.749 4.848 183.053 4.848Z" fill="#141414"/>
<path d="M207.257 13.44V38.928H199.673V13.44H207.257ZM203.417 0C204.729 0 205.801 0.416 206.633 1.248C207.497 2.048 207.929 3.072 207.929 4.32C207.929 5.568 207.497 6.608 206.633 7.44C205.801 8.24 204.729 8.64 203.417 8.64C202.105 8.64 201.033 8.24 200.201 7.44C199.369 6.608 198.953 5.568 198.953 4.32C198.953 3.072 199.369 2.048 200.201 1.248C201.033 0.416 202.105 0 203.417 0Z" fill="#141414"/>
<path d="M219.988 39.744C217.78 39.744 216.052 39.12 214.804 37.872C213.588 36.592 212.98 34.784 212.98 32.448V3.312L220.564 2.496V32.16C220.564 33.216 220.996 33.744 221.86 33.744C222.308 33.744 222.724 33.664 223.108 33.504L224.596 38.88C223.22 39.456 221.684 39.744 219.988 39.744Z" fill="#141414"/>
<path d="M248.937 13.44L240.921 38.928H231.945L223.737 13.44H231.993L236.505 33.168L241.209 13.44H248.937Z" fill="#141414"/>
<path d="M270.789 31.536C270.789 32.496 270.917 33.2 271.173 33.648C271.461 34.096 271.909 34.432 272.517 34.656L270.933 39.6C269.365 39.472 268.085 39.136 267.093 38.592C266.101 38.016 265.333 37.12 264.789 35.904C263.125 38.464 260.565 39.744 257.109 39.744C254.581 39.744 252.565 39.008 251.061 37.536C249.557 36.064 248.805 34.144 248.805 31.776C248.805 28.992 249.829 26.864 251.877 25.392C253.925 23.92 256.885 23.184 260.757 23.184H263.349V22.08C263.349 20.576 263.029 19.552 262.389 19.008C261.749 18.432 260.629 18.144 259.029 18.144C258.197 18.144 257.189 18.272 256.005 18.528C254.821 18.752 253.605 19.072 252.357 19.488L250.629 14.496C252.229 13.888 253.861 13.424 255.525 13.104C257.221 12.784 258.789 12.624 260.229 12.624C263.877 12.624 266.549 13.376 268.245 14.88C269.941 16.384 270.789 18.64 270.789 21.648V31.536ZM259.317 34.32C261.045 34.32 262.389 33.504 263.349 31.872V27.36H261.477C259.749 27.36 258.453 27.664 257.589 28.272C256.757 28.88 256.341 29.824 256.341 31.104C256.341 32.128 256.597 32.928 257.109 33.504C257.653 34.048 258.389 34.32 259.317 34.32Z" fill="#141414"/>
</svg>
